<svg xmlns="http://www.w3.org/2000/svg" width="150" height="150" enable-background="new 0 0 1081.208 230.417"><path d="M140.373 85.537c-9.387-4.79-21.062-1.405-26.078 7.565-4.813 8.607-12.803 15.062-22.495 18.177-12.692 4.078-26.054 1.692-36.162-5.283 2.913 5.458 1.665 15.537-4.929 21.616-5.913 5.452-15.293 6.997-21.506 5.364 20.232 15.855 48.305 21.74 74.883 13.199 19.042-6.118 34.74-18.807 44.201-35.727 5.013-8.967 1.47-20.12-7.914-24.911" fill="#a8a8a8"/><path d="M20.252 124.762c-6.763-7.288-12.138-15.959-15.587-25.756C-9.132 59.815 13.017 17.21 54.039 4.028c19.174-6.16 39.829-5.061 58.166 3.096 9.645 4.293 13.823 15.243 9.33 24.461-4.494 9.211-15.958 13.207-25.604 8.913-9.33-4.15-19.843-4.71-29.606-1.573-20.878 6.708-32.154 28.396-25.131 48.343a37.53 37.53 0 006.8 11.836c5.515 6.118 5.93 14.822.745 22.473-5.589 8.244-20.613 9.44-28.487 3.185" fill="#ffd200"/></svg>