<?xml version="1.0" encoding="UTF-8" standalone="no"?><!DOCTYPE svg PUBLIC "-//W3C//DTD SVG 1.1//EN" "http://www.w3.org/Graphics/SVG/1.1/DTD/svg11.dtd"><svg width="100%" height="100%" viewBox="0 0 145 51" version="1.1" xmlns="http://www.w3.org/2000/svg" xmlns:xlink="http://www.w3.org/1999/xlink" xml:space="preserve" style="fill-rule:evenodd;clip-rule:evenodd;stroke-linejoin:round;stroke-miterlimit:1.41421;"><path d="M33.71,30.371l-4.663,0c-0.092,0 -0.183,0.183 -0.183,0.274c3.2,5.121 14.905,12.071 26.245,14.815c0.091,0 0.091,0.182 0,0.182c-25.422,0.641 -33.744,-7.864 -44.809,-22.952c-0.183,-0.275 0,-0.641 0.274,-0.641l25.788,0c1.463,0 2.652,-0.365 3.658,-1.006c1.006,-0.64 1.463,-1.554 1.463,-2.743c0,-1.28 -0.457,-2.286 -1.371,-2.926c-0.915,-0.64 -2.195,-1.006 -3.841,-1.006l-31.092,0c-0.183,0 -0.366,-0.092 -0.457,-0.183c-1.463,-2.103 -3.566,-5.212 -4.664,-7.773c-0.183,-0.366 0.092,-0.731 0.457,-0.731c5.121,0 34.933,0 34.933,0c1.737,0 3.566,0.182 5.395,0.548c1.829,0.366 3.566,1.006 5.03,1.921c1.554,0.914 2.743,2.103 3.749,3.657c1.006,1.555 1.463,3.475 1.463,5.944c0,1.281 -0.183,2.561 -0.549,3.75c-0.365,1.189 -0.914,2.194 -1.554,3.2c-3.384,4.664 -7.956,5.761 -15.272,5.67Z" style="fill-rule:nonzero;"/><path d="M77.239,38.51c-1.464,-0.183 -2.835,-0.366 -2.835,-1.738c0,-1.372 1.463,-1.829 2.652,-1.829c1.188,0 2.652,0.457 2.743,1.738l1.92,0c-0.091,-2.561 -2.286,-3.567 -4.663,-3.567c-2.378,0 -4.664,1.189 -4.664,3.75c0,2.469 2.286,3.2 4.572,3.383c1.463,0.183 3.109,0.274 3.109,1.92c0,1.555 -1.554,1.921 -2.926,1.921c-1.372,0 -2.926,-0.549 -2.926,-1.921l-2.012,0c0.091,2.652 2.561,3.841 5.03,3.75c2.286,0 4.938,-1.006 4.938,-3.75c-0.092,-2.926 -2.378,-3.383 -4.938,-3.657Z" style="fill:#707173;fill-rule:nonzero;"/><path d="M90.224,33.206l-5.121,0l0,12.436l2.103,0l0,-3.749l3.109,0c2.744,0 4.39,-2.012 4.39,-4.298c-0.092,-2.377 -1.646,-4.389 -4.481,-4.389Zm0,6.95l-3.109,0l0,-5.121l3.109,0c1.463,0 2.377,1.097 2.377,2.56c0.092,1.372 -0.914,2.561 -2.377,2.561Z" style="fill:#707173;fill-rule:nonzero;"/><path d="M103.026,33.023c-3.383,0 -6.309,2.377 -6.309,6.401c0,4.024 2.926,6.401 6.309,6.401c3.75,0 6.402,-2.652 6.402,-6.401c-0.092,-4.024 -3.018,-6.401 -6.402,-6.401Zm0,10.882c-2.377,0 -4.206,-1.555 -4.206,-4.481c0,-2.926 1.92,-4.481 4.298,-4.481c2.286,0 4.206,1.646 4.206,4.481c0,2.926 -2.012,4.481 -4.298,4.481Z" style="fill:#707173;fill-rule:nonzero;"/><path d="M121.864,37.229c0,-2.194 -1.646,-4.023 -4.298,-4.023l-5.121,0l0,12.436l2.104,0l0,-4.298l2.743,0l3.109,4.298l2.378,0l-3.384,-4.663c1.463,-0.549 2.469,-2.012 2.469,-3.75Zm-4.298,2.378l-3.109,0l0,-4.572l3.109,0c1.372,0 2.286,1.006 2.286,2.286c0,1.28 -0.914,2.286 -2.286,2.286Z" style="fill:#707173;fill-rule:nonzero;"/><path d="M123.876,35.035l3.658,0l0,10.607l2.012,0l0,-10.607l3.566,0l0,-1.829l-9.236,0l0,1.829Z" style="fill:#707173;fill-rule:nonzero;"/><path d="M140.062,38.51c-1.463,-0.183 -2.835,-0.366 -2.835,-1.738c0,-1.372 1.463,-1.829 2.652,-1.829c1.189,0 2.652,0.457 2.743,1.738l1.921,0c-0.092,-2.561 -2.286,-3.567 -4.664,-3.567c-2.378,0 -4.664,1.189 -4.664,3.75c0,2.469 2.286,3.2 4.573,3.383c1.463,0.183 3.109,0.274 3.109,1.92c0,1.555 -1.555,1.921 -2.927,1.921c-1.371,0 -2.926,-0.549 -2.926,-1.921l-2.012,0c0.092,2.652 2.561,3.841 5.03,3.75c2.286,0 4.938,-1.006 4.938,-3.75c-0.091,-2.926 -2.378,-3.383 -4.938,-3.657Z" style="fill:#707173;fill-rule:nonzero;"/><path d="M81.628,16.471c2.286,0 3.932,-1.646 3.932,-3.932c0,-2.195 -1.646,-3.841 -3.932,-3.841l-5.212,0l0,7.773l5.212,0Zm8.596,10.151l-3.932,0l-5.213,-7.316l-4.572,0l0,7.316l-3.475,0l0,-20.941l8.687,0c4.573,0 7.316,3.109 7.316,6.858c0,2.926 -1.737,5.304 -4.389,6.31l5.578,7.773Z" style="fill-rule:nonzero;"/><rect x="94.796" y="5.681" width="3.475" height="20.941"/><path d="M123.144,5.681l1.281,0l0,20.941l-3.475,0l0,-13.077l-6.31,7.956l-6.31,-7.956l0,13.077l-3.475,0l0,-20.941l1.28,0l8.505,10.79l8.504,-10.79Z" style="fill-rule:nonzero;"/><path d="M135.215,23.513l9.053,0l0,3.109l-12.528,0l0,-20.941l3.475,0l0,17.832Z" style="fill-rule:nonzero;"/><path d="M10.3,0.011l0,1.463l48.924,0l0,47.46l-47.461,0l0,-15.728c-0.457,-0.64 -1.006,-1.372 -1.463,-2.012l0,19.295l50.478,0l0,-50.478l-50.478,0Z" style="fill:#707173;fill-rule:nonzero;"/></svg>