<svg width="427" height="160" viewBox="0 0 427 160" fill="none" xmlns="http://www.w3.org/2000/svg">
  <path fill-rule="evenodd" clip-rule="evenodd" d="M290.32 0.0131043C294.23 -0.168733 297.245 1.58669 298.557 2.49468C302.582 5.28072 305.154 10.0793 306.668 15.5089C308.209 21.0341 308.824 27.7879 308.493 35.3005C307.83 50.3449 303.351 69.0397 294.015 88.3375L280.883 115.513C280.813 115.659 280.735 115.8 280.651 115.937C280.326 116.462 280.01 116.974 279.703 117.475C280.746 122.846 282.04 128.032 283.603 132.425C286.126 139.517 288.641 143.821 291.048 146.419C293.335 148.886 295.62 149.926 298.154 150.294C302.556 150.932 313.75 148.692 328.134 126.486C331.727 112.245 343.351 96.6433 361.514 96.0484C370.492 95.7543 376.22 99.1729 380.028 103.038C381.803 104.841 381.803 107.763 380.028 109.565C378.253 111.368 375.374 111.368 373.599 109.565C371.345 107.277 367.974 105.072 361.807 105.274C348.997 105.693 339.62 117.196 336.789 129.409C336.045 132.62 336.509 137.057 338.119 141.165C339.763 145.363 342.165 148.146 344.3 149.101C348.431 150.95 351.308 150.232 353.471 148.93C355.9 147.47 357.708 145.071 358.858 143.273C359.898 141.647 361.633 138.458 363.254 134.763C364.89 131.035 366.26 127.129 366.773 124.003C367.159 121.653 369.245 119.987 371.586 120.159C373.927 120.332 375.755 122.285 375.802 124.668C375.882 128.605 376.484 134.965 378.436 140.432C380.44 146.048 383.308 149.326 387.129 149.947C391.743 150.696 396.047 149.375 400.93 144.584C406.022 139.586 411.424 131.086 417.686 118.116C418.792 115.827 421.515 114.881 423.769 116.003C426.024 117.125 426.955 119.89 425.85 122.178C419.485 135.361 413.522 145.064 407.249 151.22C400.767 157.581 393.706 160.363 385.692 159.061C376.885 157.631 372.261 150.226 369.888 143.577C369.785 143.29 369.686 143.002 369.59 142.713C368.446 144.998 367.343 146.955 366.483 148.3C365.107 150.451 362.369 154.307 358.105 156.872C353.576 159.596 347.613 160.672 340.632 157.547C335.399 155.205 331.74 149.86 329.67 144.576C329.27 143.554 328.913 142.495 328.607 141.413C316.215 156.623 304.948 160.603 296.868 159.431C292.33 158.773 288.151 156.763 284.426 152.743C280.823 148.855 277.782 143.237 275.052 135.56C274.307 133.467 273.621 131.229 272.992 128.895C272.808 129.219 272.627 129.537 272.45 129.85C268.488 136.832 266.028 141.168 259.533 148.803C253.269 156.167 243.367 160.989 229.338 159.451C223.758 158.839 218.693 156.438 214.81 153.413C211.157 150.567 208.09 146.799 206.88 142.832C206.099 141.142 205.234 138.682 204.486 135.942C202.34 139.47 200.088 142.771 198.387 144.733C198.281 144.855 198.172 144.981 198.06 145.111C195.885 147.625 192.535 151.497 188.339 154.555C183.882 157.802 177.998 160.483 171.064 159.427C164.118 158.369 159.921 153.762 157.347 149.03C156.352 147.2 155.545 145.249 154.875 143.351C152.061 148.248 148.868 151.374 146.719 153.042C145.281 154.159 142.898 155.99 140.081 157.408C137.304 158.805 133.602 160.061 129.611 159.421C122.925 158.349 118.769 153.741 116.357 149.273C114.375 145.601 113.344 141.653 112.881 138.705C111.397 140.883 109.999 142.891 108.884 144.493C108.669 144.802 108.465 145.095 108.273 145.371C108.2 145.476 108.123 145.577 108.042 145.676C105.676 148.539 102.049 152.285 97.7252 155.12C93.4744 157.908 87.8954 160.237 81.9477 159.029C78.6781 158.366 75.9608 156.98 73.8143 154.942C71.6926 152.927 70.3376 150.473 69.463 147.971C67.7747 143.141 67.6859 137.494 67.6859 132.967C67.6859 132.835 67.6915 132.704 67.7025 132.573L69.1996 114.842C69.1656 113.048 68.6216 111.115 67.7866 109.73C66.8825 108.231 66.2165 108.199 66.1706 108.199C65.0095 108.199 63.4291 108.868 61.78 110.023C61.0285 110.55 60.3954 111.083 59.9526 111.484C59.7336 111.683 59.5674 111.843 59.4634 111.946C59.4574 111.952 59.4517 111.957 59.4462 111.963C51.006 122.458 45.1688 133.594 40.6483 142.352C40.5094 142.621 40.3712 142.888 40.2339 143.155C38.1773 147.142 36.2944 150.793 34.5804 153.44C33.6678 154.85 32.6314 156.253 31.4483 157.327C30.4709 158.214 28.9709 159.257 27.0349 159.45C26.7085 159.529 26.3184 159.596 25.8783 159.619C24.4921 159.689 22.7013 159.294 21.1933 157.796C19.8156 156.427 19.1318 154.585 18.8057 152.695C18.474 150.772 18.4365 148.369 18.7094 145.363C18.899 143.275 19.293 140.335 19.7335 137.048C19.9052 135.767 20.084 134.433 20.2604 133.077C20.9046 128.125 21.5499 122.656 21.8555 117.541C22.166 112.342 22.0992 107.869 21.4802 104.771C21.2001 103.37 20.863 102.552 20.6112 102.133C20.3847 102.253 20.0071 102.504 19.465 103.025C18.3095 104.137 17.0115 105.914 15.6422 108.229C13.3339 112.131 11.2757 116.757 9.58296 120.561C9.26954 121.265 8.96865 121.942 8.68102 122.58C7.63653 124.898 4.93897 125.917 2.65587 124.857C0.372769 123.796 -0.63132 121.058 0.413178 118.74C0.668064 118.174 0.944932 117.551 1.24186 116.883C2.91923 113.107 5.23673 107.891 7.84765 103.477C9.38278 100.882 11.1786 98.2806 13.2115 96.3251C15.1602 94.4506 18.0643 92.472 21.6681 92.8379C24.4829 93.1237 26.5785 94.6995 27.9587 96.685C29.2449 98.5354 29.96 100.781 30.3906 102.936C31.2553 107.263 31.2516 112.728 30.9308 118.1C30.605 123.554 29.9243 129.287 29.2742 134.285C29.0781 135.792 28.8873 137.216 28.7095 138.543C28.2843 141.716 27.9334 144.334 27.763 146.21C27.7298 146.575 27.7032 146.919 27.6824 147.243C28.9777 145.077 30.4673 142.19 32.3156 138.609L32.595 138.067C37.1418 129.259 43.3884 117.29 52.5526 105.94C52.6263 105.849 52.7034 105.76 52.7838 105.675L56.0684 108.866C52.7838 105.675 52.7838 105.675 52.7838 105.675L52.7872 105.672L52.8003 105.658L52.8242 105.633C52.8427 105.613 52.8662 105.589 52.8944 105.56C52.951 105.502 53.027 105.425 53.1212 105.332C53.3095 105.146 53.5723 104.893 53.9001 104.597C54.5509 104.007 55.4827 103.22 56.6163 102.426C58.7375 100.94 62.2082 98.9685 66.1706 98.9685C70.6707 98.9685 73.793 102.013 75.5408 104.911C77.33 107.878 78.2932 111.579 78.2932 115.019C78.2932 115.151 78.2877 115.282 78.2766 115.413L76.778 133.163C76.7827 137.784 76.9568 141.81 78.0315 144.884C78.5459 146.356 79.2114 147.428 80.0256 148.201C80.8151 148.951 81.9493 149.617 83.7308 149.979C86.3184 150.504 89.4104 149.585 92.7913 147.367C96.0351 145.24 98.9483 142.297 100.957 139.887C101.117 139.657 101.284 139.417 101.457 139.169C103.488 136.252 106.356 132.131 108.981 128.092C110.431 125.861 111.777 123.699 112.85 121.815C113.965 119.856 114.635 118.454 114.894 117.662C115.245 116.594 115.573 115.52 115.906 114.431C117.371 109.634 118.931 104.527 122.96 98.1655C124.318 96.0215 127.13 95.4007 129.242 96.779C131.354 98.1574 131.966 101.013 130.608 103.157C127.297 108.386 126.122 112.206 124.693 116.856C124.347 117.98 123.987 119.152 123.578 120.405C123.133 122.257 122.576 125.317 122.174 128.437C121.746 131.762 121.565 134.627 121.71 136.097C121.921 138.232 122.681 141.783 124.33 144.838C125.96 147.856 128.117 149.837 131.029 150.304C132.362 150.518 134.048 150.141 136.044 149.138C137.999 148.154 139.772 146.816 141.196 145.71C143.111 144.224 147.248 140.145 149.747 132.533C150.943 128.891 151.83 123.615 152.45 118.174L153.567 102.884C153.75 100.378 155.874 98.4812 158.346 98.6167C160.817 98.7523 162.728 100.87 162.644 103.381C162.53 106.803 162.22 112.461 161.576 118.385C161.554 118.586 161.532 118.788 161.509 118.991L161.137 126.308L161.492 133.753C161.563 134.008 161.634 134.264 161.706 134.521C162.662 137.964 163.65 141.523 165.307 144.568C167.083 147.836 169.257 149.818 172.413 150.299C176.142 150.866 179.653 149.522 183.037 147.056C186.368 144.629 189.115 141.458 191.365 138.861L191.561 138.635C193.115 136.843 195.791 132.848 198.292 128.481C200.66 124.345 202.446 120.606 203.047 118.56C203.094 118.357 203.145 118.156 203.201 117.958C204.048 114.291 206.143 107.842 210.123 102.829C212.172 100.248 214.894 97.8302 218.415 96.5375C222.028 95.2112 226.074 95.2215 230.395 96.8462C237.966 99.693 240.608 107.105 240.303 113.96C239.998 120.816 236.855 128.256 231.526 133.666C228.279 136.962 223.11 141.016 217.706 143.611C218.413 144.425 219.291 145.269 220.345 146.09C223.113 148.247 226.635 149.871 230.314 150.274C241.541 151.505 248.446 147.714 252.652 142.77C258.595 135.783 260.525 132.37 264.14 125.974C265.681 123.248 267.528 119.979 270.124 115.66C268.133 104.154 267.234 92.574 267.205 85.8108C267.103 62.5843 268.333 45.6336 270.342 33.3033C272.34 21.0433 275.161 13.0098 278.484 7.89571C281.918 2.61109 286.08 0.210218 290.32 0.0131043ZM277.361 101.846L285.853 84.2704C294.701 65.9804 298.81 48.5216 299.41 34.8883C299.71 28.062 299.125 22.3455 297.92 18.0236C296.688 13.6061 294.966 11.1808 293.435 10.1209C292.823 9.69727 291.794 9.18442 290.735 9.23365C290.005 9.26761 288.271 9.59715 286.074 12.9783C283.766 16.53 281.221 23.0976 279.312 34.81C277.415 46.4521 276.196 62.8452 276.297 85.7698C276.314 89.7459 276.658 95.4858 277.361 101.846ZM213.777 135.289C217.88 133.325 222.249 130.031 225.097 127.14C228.859 123.32 231.02 118.045 231.22 113.543C231.42 109.041 229.768 106.453 227.237 105.502C224.739 104.562 222.914 104.701 221.507 105.218C220.009 105.768 218.563 106.907 217.202 108.621C214.409 112.139 212.718 117.137 212.031 120.159C211.98 120.384 211.921 120.615 211.856 120.853C211.436 122.832 211.639 126.173 212.428 130.044C212.817 131.95 213.299 133.757 213.777 135.289Z" fill="currentColor"/>
</svg>
